<?xml version="1.0" standalone="no"?>
<!DOCTYPE svg PUBLIC "-//W3C//DTD SVG 20010904//EN"
 "http://www.w3.org/TR/2001/REC-SVG-20010904/DTD/svg10.dtd">
<svg version="1.0" xmlns="http://www.w3.org/2000/svg"
 width="1734.000000pt" height="504.000000pt" viewBox="0 0 1734.000000 504.000000"
 preserveAspectRatio="xMidYMid meet">

<g transform="translate(0.000000,504.000000) scale(0.100000,-0.100000)"
fill="#000000" stroke="none">
<path d="M4010 3849 l0 -490 323 3 c368 5 397 10 473 80 108 100 92 286 -36
401 -87 78 -249 148 -414 178 l-66 12 0 44 0 43 271 0 c253 0 270 1 265 18 -2
9 -17 59 -32 110 l-27 92 -379 0 -378 0 0 -491z m418 -71 c86 -27 132 -71 132
-126 0 -56 -15 -62 -154 -62 l-116 0 0 110 0 111 38 -6 c20 -4 65 -16 100 -27z"/>
<path d="M5181 4079 c-152 -30 -231 -139 -218 -304 3 -38 15 -95 26 -125 41
-110 161 -226 276 -266 38 -14 91 -19 223 -22 l172 -4 0 366 0 366 -217 -1
c-120 -1 -238 -5 -262 -10z m229 -355 l0 -166 -27 6 c-86 21 -163 125 -163
220 0 42 5 57 23 73 30 28 42 31 110 32 l57 1 0 -166z"/>
<path d="M6160 4079 c-115 -17 -200 -60 -272 -137 -136 -145 -157 -366 -53
-571 18 -36 42 -77 52 -90 l20 -24 102 59 c55 32 100 61 98 64 -2 3 -20 39
-41 82 -43 88 -57 190 -36 267 14 52 70 115 123 136 l37 15 0 -260 0 -260 130
0 130 0 -2 363 -3 362 -115 1 c-63 1 -140 -2 -170 -7z"/>
<path d="M6547 4083 c-7 -13 -57 -180 -57 -192 0 -7 36 -11 110 -11 l110 0 0
-260 0 -260 125 0 125 0 0 260 0 260 115 0 c63 0 115 3 115 8 0 4 -13 50 -29
102 l-28 95 -291 3 c-160 1 -293 -1 -295 -5z"/>
<path d="M7400 4074 c-134 -35 -200 -125 -200 -271 0 -199 152 -387 351 -432
24 -6 113 -11 197 -11 l152 0 0 365 0 365 -222 -1 c-161 0 -238 -4 -278 -15z
m250 -350 l0 -166 -27 7 c-46 11 -101 53 -130 98 -28 44 -41 123 -29 172 9 34
55 54 129 55 l57 0 0 -166z"/>
<path d="M8215 4076 c-70 -17 -108 -39 -147 -86 -43 -50 -58 -98 -58 -187 0
-128 44 -227 144 -321 82 -78 190 -122 298 -122 l47 0 26 83 c14 45 28 90 31
100 5 15 -2 17 -56 17 -98 0 -158 34 -205 115 -45 78 -44 162 3 193 19 12 55
18 137 22 l112 5 -30 98 -30 97 -111 -1 c-61 0 -133 -6 -161 -13z"/>
<path d="M8721 4033 c-127 -253 -139 -484 -30 -592 70 -70 95 -76 377 -79
l252 -4 0 366 0 366 -125 0 -125 0 0 -265 0 -265 -49 0 c-100 0 -141 36 -141
123 0 60 31 173 79 291 23 55 41 103 41 108 0 4 -56 8 -125 8 l-125 0 -29 -57z"/>
<path d="M2917 3719 c-469 -32 -787 -164 -1057 -439 -267 -272 -407 -618 -427
-1050 -14 -330 61 -676 216 -983 84 -168 181 -319 200 -312 7 3 134 80 282
171 l268 166 -30 52 c-57 95 -147 290 -173 374 -31 98 -56 235 -56 303 l0 49
370 0 370 0 2 -387 3 -388 345 0 345 0 3 913 2 912 -350 0 -350 0 0 -245 0
-245 -335 0 c-184 0 -335 2 -335 5 0 3 22 49 49 103 94 186 176 272 337 348
179 86 314 104 762 104 313 0 333 1 328 18 -3 9 -37 127 -76 262 -39 135 -73
253 -76 263 -5 16 -25 17 -252 16 -136 -1 -300 -5 -365 -10z"/>
<path d="M9745 3718 c-3 -7 -4 -560 -3 -1228 l3 -1215 345 0 345 0 5 735 5
736 250 -320 c138 -176 255 -321 260 -322 6 -2 127 144 270 323 l260 327 3
-742 2 -742 345 0 345 0 0 1230 0 1230 -327 0 -328 -1 -285 -360 c-220 -279
-287 -357 -295 -346 -5 7 -131 169 -279 360 l-268 347 -324 0 c-251 0 -326 -3
-329 -12z"/>
<path d="M8166 3119 c-170 -25 -310 -86 -410 -180 -78 -72 -124 -145 -163
-254 -27 -77 -28 -88 -28 -265 0 -142 4 -205 18 -270 90 -416 332 -760 616
-875 129 -53 309 -69 443 -40 152 32 267 96 388 215 178 175 307 427 362 702
29 149 31 389 4 488 -58 216 -197 364 -408 436 -124 42 -237 54 -513 53 -137
-1 -277 -5 -309 -10z m483 -510 c59 -25 104 -71 121 -125 18 -54 7 -268 -18
-365 -39 -145 -123 -299 -191 -345 -56 -38 -108 -33 -162 15 -155 136 -262
569 -180 729 42 83 149 125 298 117 54 -2 99 -11 132 -26z"/>
<path d="M3995 3078 c-3 -7 -4 -416 -3 -908 l3 -895 545 -3 c341 -2 585 1 652
8 122 12 259 48 332 88 157 85 249 251 232 417 -15 144 -79 262 -213 393 l-86
83 65 67 c113 117 155 219 145 350 -14 187 -144 321 -372 384 -78 21 -98 22
-688 26 -494 3 -608 1 -612 -10z m938 -501 c21 -9 42 -27 49 -42 25 -55 -38
-124 -222 -247 -58 -39 -106 -73 -108 -77 -1 -4 59 -45 134 -91 261 -162 340
-270 241 -331 -29 -17 -52 -19 -219 -19 l-188 0 0 416 0 417 138 -5 c91 -4
150 -11 175 -21z"/>
<path d="M5922 3073 c-3 -10 -38 -124 -78 -253 l-71 -235 284 -3 283 -2 2
-653 3 -652 308 -3 307 -2 0 655 0 655 285 0 c265 0 285 1 284 18 0 9 -33 123
-72 252 l-72 235 -728 3 c-686 2 -728 1 -735 -15z"/>
<path d="M12789 2983 c-120 -255 -207 -496 -251 -693 -32 -147 -32 -405 0
-525 80 -294 272 -447 610 -485 62 -7 285 -10 612 -8 l515 3 0 905 0 905 -310
0 -310 0 -3 -657 -2 -658 -118 0 c-134 0 -215 16 -271 53 -98 65 -121 242 -62
492 30 128 61 217 172 503 55 140 99 258 99 263 0 5 -133 9 -315 9 l-316 0
-50 -107z"/>
<path d="M14650 1870 l0 -1220 310 0 310 0 0 290 0 289 38 10 c20 6 43 11 49
11 31 0 286 91 360 129 461 231 714 646 672 1099 -32 351 -249 552 -644 601
-55 7 -287 11 -592 11 l-503 0 0 -1220z m879 720 c158 -21 231 -100 231 -249
0 -243 -165 -477 -387 -550 -114 -38 -103 -82 -103 394 l0 415 93 0 c50 0 125
-5 166 -10z"/>
</g>
</svg>
