<svg id="Слой_1" data-name="Слой 1" xmlns="http://www.w3.org/2000/svg" viewBox="0 0 180 180"><defs><style>.cls-1{fill:#01a6aa;stroke:#01a6aa;}.cls-1,.cls-2{stroke-miterlimit:10;}.cls-2{fill:#112e36;stroke:#112e36;}</style></defs><title>main-icon</title><polygon class="cls-1" points="89.85 58.78 53.8 121.22 67.09 121.22 89.85 81.8 89.85 58.78"/><polygon class="cls-1" points="68.33 68.02 42.95 111.98 52.31 111.98 68.33 84.23 68.33 68.02"/><polygon class="cls-2" points="69.31 68.02 94.69 111.98 85.33 111.98 69.31 84.23 69.31 68.02"/><polygon class="cls-1" points="111.54 68.02 86.16 111.98 95.52 111.98 111.54 84.23 111.54 68.02"/><polygon class="cls-2" points="112.54 68.02 137.92 111.98 128.56 111.98 112.54 84.23 112.54 68.02"/><polygon class="cls-2" points="90.84 58.78 126.89 121.22 113.6 121.22 90.84 81.8 90.84 58.78"/></svg>