<svg id="Слой_1" data-name="Слой 1" xmlns="http://www.w3.org/2000/svg" viewBox="0 0 96.71 64.81"><defs><style>.cls-1{fill:#01a6aa;stroke:#01a6aa;}.cls-1,.cls-2{stroke-miterlimit:10;}.cls-2{fill:#112e36;stroke:#112e36;}</style></defs><title>main-icon-clean</title><polygon class="cls-1" points="47.77 1.87 11.71 64.31 25.01 64.31 47.77 24.89 47.77 1.87"/><polygon class="cls-1" points="26.25 11.11 0.87 55.07 10.22 55.07 26.25 27.32 26.25 11.11"/><polygon class="cls-2" points="27.23 11.11 52.61 55.07 43.25 55.07 27.23 27.32 27.23 11.11"/><polygon class="cls-1" points="69.46 11.11 44.08 55.07 53.44 55.07 69.46 27.32 69.46 11.11"/><polygon class="cls-2" points="70.46 11.11 95.84 55.07 86.48 55.07 70.46 27.32 70.46 11.11"/><polygon class="cls-2" points="48.76 1.87 84.81 64.31 71.52 64.31 48.76 24.89 48.76 1.87"/></svg>